<?xml version="1.0" encoding="us-ascii" standalone="no"?><svg xmlns="http://www.w3.org/2000/svg" xmlns:xlink="http://www.w3.org/1999/xlink" contentStyleType="text/css" height="561px" preserveAspectRatio="none" style="width:251px;height:561px;background:#FFFFFF;" version="1.1" viewBox="0 0 251 561" width="251px" zoomAndPan="magnify"><defs/><g><ellipse cx="121.5" cy="20" fill="#222222" rx="10" ry="10" style="stroke:#222222;stroke-width:1.0;"/><rect fill="#F1F1F1" height="33.9688" rx="12.5" ry="12.5" style="stroke:#181818;stroke-width:0.5;" width="221" x="11" y="50"/><text fill="#000000" font-family="sans-serif" font-size="12" lengthAdjust="spacing" textLength="197" x="25" y="71.1387">Read commands from WhatsApp</text><rect fill="#F1F1F1" height="47.9375" rx="12.5" ry="12.5" style="stroke:#181818;stroke-width:0.5;" width="134" x="54.5" y="196.3711"/><text fill="#000000" font-family="sans-serif" font-size="12" lengthAdjust="spacing" textLength="114" x="64.5" y="217.5098">Purchase Shufersal</text><text fill="#000000" font-family="sans-serif" font-size="12" lengthAdjust="spacing" textLength="46" x="68.5" y="231.4785">Coupon</text><polygon fill="#F1F1F1" points="52,147.9688,191,147.9688,203,159.9688,191,171.9688,52,171.9688,40,159.9688,52,147.9688" style="stroke:#181818;stroke-width:0.5;"/><text fill="#000000" font-family="sans-serif" font-size="11" lengthAdjust="spacing" textLength="21" x="125.5" y="182.1792">yes</text><text fill="#000000" font-family="sans-serif" font-size="11" lengthAdjust="spacing" textLength="139" x="52" y="163.7769">Workingday &amp; credit &gt; 0</text><text fill="#000000" font-family="sans-serif" font-size="11" lengthAdjust="spacing" textLength="14" x="203" y="157.3745">no</text><polygon fill="#F1F1F1" points="121.5,264.3086,133.5,276.3086,121.5,288.3086,109.5,276.3086,121.5,264.3086" style="stroke:#181818;stroke-width:0.5;"/><polygon fill="#F1F1F1" points="50,103.9688,193,103.9688,205,115.9688,193,127.9688,50,127.9688,38,115.9688,50,103.9688" style="stroke:#181818;stroke-width:0.5;"/><text fill="#000000" font-family="sans-serif" font-size="11" lengthAdjust="spacing" textLength="143" x="50" y="119.7769">/disable command exists</text><text fill="#000000" font-family="sans-serif" font-size="11" lengthAdjust="spacing" textLength="21" x="205" y="113.3745">yes</text><polygon fill="#F1F1F1" points="121.5,308.3086,133.5,320.3086,121.5,332.3086,109.5,320.3086,121.5,308.3086" style="stroke:#181818;stroke-width:0.5;"/><rect fill="#F1F1F1" height="47.9375" rx="12.5" ry="12.5" style="stroke:#181818;stroke-width:0.5;" width="206" x="18.5" y="352.3086"/><text fill="#000000" font-family="sans-serif" font-size="12" lengthAdjust="spacing" textLength="182" x="32.5" y="373.4473">Generate report with coupons</text><text fill="#000000" font-family="sans-serif" font-size="12" lengthAdjust="spacing" textLength="58" x="32.5" y="387.416">barcodes</text><rect fill="#F1F1F1" height="33.9688" rx="12.5" ry="12.5" style="stroke:#181818;stroke-width:0.5;" width="206" x="18.5" y="420.2461"/><text fill="#000000" font-family="sans-serif" font-size="12" lengthAdjust="spacing" textLength="178" x="32.5" y="441.3848">Save report as PDF and HTML</text><rect fill="#F1F1F1" height="33.9688" rx="12.5" ry="12.5" style="stroke:#181818;stroke-width:0.5;" width="212" x="15.5" y="474.2148"/><text fill="#000000" font-family="sans-serif" font-size="12" lengthAdjust="spacing" textLength="188" x="29.5" y="495.3535">Publish PDF to WhatsApp group</text><ellipse cx="121.5" cy="539.1836" fill="none" rx="11" ry="11" style="stroke:#222222;stroke-width:1.0;"/><ellipse cx="121.5" cy="539.1836" fill="#222222" rx="6" ry="6" style="stroke:#222222;stroke-width:1.0;"/><line style="stroke:#181818;stroke-width:1.0;" x1="121.5" x2="121.5" y1="30" y2="50"/><polygon fill="#181818" points="117.5,40,121.5,50,125.5,40,121.5,44" style="stroke:#181818;stroke-width:1.0;"/><line style="stroke:#181818;stroke-width:1.0;" x1="121.5" x2="121.5" y1="171.9688" y2="196.3711"/><polygon fill="#181818" points="117.5,186.3711,121.5,196.3711,125.5,186.3711,121.5,190.3711" style="stroke:#181818;stroke-width:1.0;"/><line style="stroke:#181818;stroke-width:1.0;" x1="203" x2="215" y1="159.9688" y2="159.9688"/><polygon fill="#181818" points="211,210.3398,215,220.3398,219,210.3398,215,214.3398" style="stroke:#181818;stroke-width:1.0;"/><line style="stroke:#181818;stroke-width:1.0;" x1="215" x2="215" y1="159.9688" y2="276.3086"/><line style="stroke:#181818;stroke-width:1.0;" x1="215" x2="133.5" y1="276.3086" y2="276.3086"/><polygon fill="#181818" points="143.5,272.3086,133.5,276.3086,143.5,280.3086,139.5,276.3086" style="stroke:#181818;stroke-width:1.0;"/><line style="stroke:#181818;stroke-width:1.0;" x1="121.5" x2="121.5" y1="244.3086" y2="264.3086"/><polygon fill="#181818" points="117.5,254.3086,121.5,264.3086,125.5,254.3086,121.5,258.3086" style="stroke:#181818;stroke-width:1.0;"/><line style="stroke:#181818;stroke-width:1.0;" x1="121.5" x2="121.5" y1="127.9688" y2="147.9688"/><polygon fill="#181818" points="117.5,137.9688,121.5,147.9688,125.5,137.9688,121.5,141.9688" style="stroke:#181818;stroke-width:1.0;"/><line style="stroke:#181818;stroke-width:1.0;" x1="205" x2="225" y1="115.9688" y2="115.9688"/><polygon fill="#181818" points="221,210.3398,225,220.3398,229,210.3398,225,214.3398" style="stroke:#181818;stroke-width:1.0;"/><line style="stroke:#181818;stroke-width:1.0;" x1="225" x2="225" y1="115.9688" y2="320.3086"/><line style="stroke:#181818;stroke-width:1.0;" x1="225" x2="133.5" y1="320.3086" y2="320.3086"/><polygon fill="#181818" points="143.5,316.3086,133.5,320.3086,143.5,324.3086,139.5,320.3086" style="stroke:#181818;stroke-width:1.0;"/><line style="stroke:#181818;stroke-width:1.0;" x1="121.5" x2="121.5" y1="288.3086" y2="308.3086"/><polygon fill="#181818" points="117.5,298.3086,121.5,308.3086,125.5,298.3086,121.5,302.3086" style="stroke:#181818;stroke-width:1.0;"/><line style="stroke:#181818;stroke-width:1.0;" x1="121.5" x2="121.5" y1="83.9688" y2="103.9688"/><polygon fill="#181818" points="117.5,93.9688,121.5,103.9688,125.5,93.9688,121.5,97.9688" style="stroke:#181818;stroke-width:1.0;"/><line style="stroke:#181818;stroke-width:1.0;" x1="121.5" x2="121.5" y1="332.3086" y2="352.3086"/><polygon fill="#181818" points="117.5,342.3086,121.5,352.3086,125.5,342.3086,121.5,346.3086" style="stroke:#181818;stroke-width:1.0;"/><line style="stroke:#181818;stroke-width:1.0;" x1="121.5" x2="121.5" y1="400.2461" y2="420.2461"/><polygon fill="#181818" points="117.5,410.2461,121.5,420.2461,125.5,410.2461,121.5,414.2461" style="stroke:#181818;stroke-width:1.0;"/><line style="stroke:#181818;stroke-width:1.0;" x1="121.5" x2="121.5" y1="454.2148" y2="474.2148"/><polygon fill="#181818" points="117.5,464.2148,121.5,474.2148,125.5,464.2148,121.5,468.2148" style="stroke:#181818;stroke-width:1.0;"/><line style="stroke:#181818;stroke-width:1.0;" x1="121.5" x2="121.5" y1="508.1836" y2="528.1836"/><polygon fill="#181818" points="117.5,518.1836,121.5,528.1836,125.5,518.1836,121.5,522.1836" style="stroke:#181818;stroke-width:1.0;"/><!--SRC=[LP0nJyD038Nt-nLlGka4SoDLGY1W02bgaRgmE3cdToAvYsm7wB_daefAlC6Bl_VqR3KISrlicJowF8wKlAANFE8OoFH-cceNUrItFYgr0_z1u9-efXjOu8JgpBfnF2Wx52s6OvRFc4wUphX19-oZOOUxVmQisZQpT86KSGXppw8qV2Gyv7dAgLwP9HXLoXS79nzxTvcb-ZCd5ZA6y9J5y1qjb9QBMqjEIz9bpreNz41VLumKpUCJbbDUtjzUiUoRkHsYXdLX-Ve1dAJ4rKujJxy0]--></g></svg>