<?xml version="1.0" encoding="us-ascii" standalone="no"?><svg xmlns="http://www.w3.org/2000/svg" xmlns:xlink="http://www.w3.org/1999/xlink" contentStyleType="text/css" height="511px" preserveAspectRatio="none" style="width:242px;height:511px;background:#FFFFFF;" version="1.1" viewBox="0 0 242 511" width="242px" zoomAndPan="magnify"><defs/><g><ellipse cx="117" cy="20" fill="#222222" rx="10" ry="10" style="stroke:#222222;stroke-width:1.0;"/><rect fill="#F1F1F1" height="47.9375" rx="12.5" ry="12.5" style="stroke:#181818;stroke-width:0.5;" width="134" x="50" y="146.8047"/><text fill="#000000" font-family="sans-serif" font-size="12" lengthAdjust="spacing" textLength="114" x="60" y="167.9434">Purchase Shufersal</text><text fill="#000000" font-family="sans-serif" font-size="12" lengthAdjust="spacing" textLength="46" x="64" y="181.9121">Coupon</text><polygon fill="#F1F1F1" points="71,98.4023,163,98.4023,175,110.4023,163,122.4023,71,122.4023,59,110.4023,71,98.4023" style="stroke:#181818;stroke-width:0.5;"/><text fill="#000000" font-family="sans-serif" font-size="11" lengthAdjust="spacing" textLength="21" x="121" y="132.6128">yes</text><text fill="#000000" font-family="sans-serif" font-size="11" lengthAdjust="spacing" textLength="92" x="71" y="114.2104">10bis Credit &gt; 0</text><text fill="#000000" font-family="sans-serif" font-size="11" lengthAdjust="spacing" textLength="14" x="175" y="107.8081">no</text><polygon fill="#F1F1F1" points="117,214.7422,129,226.7422,117,238.7422,105,226.7422,117,214.7422" style="stroke:#181818;stroke-width:0.5;"/><polygon fill="#F1F1F1" points="84,50,150,50,162,62,150,74,84,74,72,62,84,50" style="stroke:#181818;stroke-width:0.5;"/><text fill="#000000" font-family="sans-serif" font-size="11" lengthAdjust="spacing" textLength="21" x="121" y="84.2104">yes</text><text fill="#000000" font-family="sans-serif" font-size="11" lengthAdjust="spacing" textLength="66" x="84" y="65.8081">Workingday</text><text fill="#000000" font-family="sans-serif" font-size="11" lengthAdjust="spacing" textLength="14" x="162" y="59.4058">no</text><polygon fill="#F1F1F1" points="117,258.7422,129,270.7422,117,282.7422,105,270.7422,117,258.7422" style="stroke:#181818;stroke-width:0.5;"/><rect fill="#F1F1F1" height="47.9375" rx="12.5" ry="12.5" style="stroke:#181818;stroke-width:0.5;" width="206" x="14" y="302.7422"/><text fill="#000000" font-family="sans-serif" font-size="12" lengthAdjust="spacing" textLength="182" x="28" y="323.8809">Generate report with coupons</text><text fill="#000000" font-family="sans-serif" font-size="12" lengthAdjust="spacing" textLength="58" x="28" y="337.8496">barcodes</text><rect fill="#F1F1F1" height="33.9688" rx="12.5" ry="12.5" style="stroke:#181818;stroke-width:0.5;" width="206" x="14" y="370.6797"/><text fill="#000000" font-family="sans-serif" font-size="12" lengthAdjust="spacing" textLength="178" x="28" y="391.8184">Save report as PDF and HTML</text><rect fill="#F1F1F1" height="33.9688" rx="12.5" ry="12.5" style="stroke:#181818;stroke-width:0.5;" width="212" x="11" y="424.6484"/><text fill="#000000" font-family="sans-serif" font-size="12" lengthAdjust="spacing" textLength="188" x="25" y="445.7871">Publish PDF to WhatsApp group</text><ellipse cx="117" cy="489.6172" fill="none" rx="11" ry="11" style="stroke:#222222;stroke-width:1.0;"/><ellipse cx="117" cy="489.6172" fill="#222222" rx="6" ry="6" style="stroke:#222222;stroke-width:1.0;"/><line style="stroke:#181818;stroke-width:1.0;" x1="117" x2="117" y1="122.4023" y2="146.8047"/><polygon fill="#181818" points="113,136.8047,117,146.8047,121,136.8047,117,140.8047" style="stroke:#181818;stroke-width:1.0;"/><line style="stroke:#181818;stroke-width:1.0;" x1="175" x2="194" y1="110.4023" y2="110.4023"/><polygon fill="#181818" points="190,160.7734,194,170.7734,198,160.7734,194,164.7734" style="stroke:#181818;stroke-width:1.0;"/><line style="stroke:#181818;stroke-width:1.0;" x1="194" x2="194" y1="110.4023" y2="226.7422"/><line style="stroke:#181818;stroke-width:1.0;" x1="194" x2="129" y1="226.7422" y2="226.7422"/><polygon fill="#181818" points="139,222.7422,129,226.7422,139,230.7422,135,226.7422" style="stroke:#181818;stroke-width:1.0;"/><line style="stroke:#181818;stroke-width:1.0;" x1="117" x2="117" y1="194.7422" y2="214.7422"/><polygon fill="#181818" points="113,204.7422,117,214.7422,121,204.7422,117,208.7422" style="stroke:#181818;stroke-width:1.0;"/><line style="stroke:#181818;stroke-width:1.0;" x1="117" x2="117" y1="74" y2="98.4023"/><polygon fill="#181818" points="113,88.4023,117,98.4023,121,88.4023,117,92.4023" style="stroke:#181818;stroke-width:1.0;"/><line style="stroke:#181818;stroke-width:1.0;" x1="162" x2="216" y1="62" y2="62"/><polygon fill="#181818" points="212,160.7734,216,170.7734,220,160.7734,216,164.7734" style="stroke:#181818;stroke-width:1.0;"/><line style="stroke:#181818;stroke-width:1.0;" x1="216" x2="216" y1="62" y2="270.7422"/><line style="stroke:#181818;stroke-width:1.0;" x1="216" x2="129" y1="270.7422" y2="270.7422"/><polygon fill="#181818" points="139,266.7422,129,270.7422,139,274.7422,135,270.7422" style="stroke:#181818;stroke-width:1.0;"/><line style="stroke:#181818;stroke-width:1.0;" x1="117" x2="117" y1="238.7422" y2="258.7422"/><polygon fill="#181818" points="113,248.7422,117,258.7422,121,248.7422,117,252.7422" style="stroke:#181818;stroke-width:1.0;"/><line style="stroke:#181818;stroke-width:1.0;" x1="117" x2="117" y1="30" y2="50"/><polygon fill="#181818" points="113,40,117,50,121,40,117,44" style="stroke:#181818;stroke-width:1.0;"/><line style="stroke:#181818;stroke-width:1.0;" x1="117" x2="117" y1="282.7422" y2="302.7422"/><polygon fill="#181818" points="113,292.7422,117,302.7422,121,292.7422,117,296.7422" style="stroke:#181818;stroke-width:1.0;"/><line style="stroke:#181818;stroke-width:1.0;" x1="117" x2="117" y1="350.6797" y2="370.6797"/><polygon fill="#181818" points="113,360.6797,117,370.6797,121,360.6797,117,364.6797" style="stroke:#181818;stroke-width:1.0;"/><line style="stroke:#181818;stroke-width:1.0;" x1="117" x2="117" y1="404.6484" y2="424.6484"/><polygon fill="#181818" points="113,414.6484,117,424.6484,121,414.6484,117,418.6484" style="stroke:#181818;stroke-width:1.0;"/><line style="stroke:#181818;stroke-width:1.0;" x1="117" x2="117" y1="458.6172" y2="478.6172"/><polygon fill="#181818" points="113,468.6172,117,478.6172,121,468.6172,117,472.6172" style="stroke:#181818;stroke-width:1.0;"/><!--SRC=[POonYi9054Nx-OfR9fss1XOMHIqK0WessxnaNfp1C3EyzxBYtsysnS9YUJdd7ZKISt50TSloYEdkwLN30YTKBzPwGUjL5nLROHyD7rZz4u1DEqaVI1cNC0qiIkDNmZPF9QV6yJY3AkNQSV9nUDjkWmCd5ZA6SCbYU4OBw9U_pgMEfC-UjPdL2tt_QQHeTtjGyZXUpoVyydRgngXX0PPn2sJwMGhkCkSQfvRB3m00]--></g></svg>