<?xml version="1.0" encoding="us-ascii" standalone="no"?><svg xmlns="http://www.w3.org/2000/svg" xmlns:xlink="http://www.w3.org/1999/xlink" contentStyleType="text/css" height="473px" preserveAspectRatio="none" style="width:859px;height:473px;background:#FFFFFF;" version="1.1" viewBox="0 0 859 473" width="859px" zoomAndPan="magnify"><defs/><g><!--class Processor--><g id="elem_Processor"><rect codeLine="1" fill="#F1F1F1" height="113.1875" id="Processor" rx="2.5" ry="2.5" style="stroke:#181818;stroke-width:0.5;" width="210" x="387.5" y="353"/><ellipse cx="453.25" cy="369" fill="#ADD1B2" rx="11" ry="11" style="stroke:#181818;stroke-width:1.0;"/><path d="M455.5938,364.6719 C454.6563,364.2344 454.0625,364.0938 453.1875,364.0938 C450.5625,364.0938 448.5625,366.1719 448.5625,368.8906 L448.5625,370.0156 C448.5625,372.5938 450.6719,374.4844 453.5625,374.4844 C454.7813,374.4844 455.9375,374.1875 456.6875,373.6406 C457.2656,373.2344 457.5938,372.7813 457.5938,372.3906 C457.5938,371.9375 457.2031,371.5469 456.7344,371.5469 C456.5156,371.5469 456.3125,371.625 456.125,371.8125 C455.6719,372.2969 455.6719,372.2969 455.4844,372.3906 C455.0625,372.6563 454.375,372.7813 453.6094,372.7813 C451.5625,372.7813 450.2656,371.6875 450.2656,369.9844 L450.2656,368.8906 C450.2656,367.1094 451.5156,365.7969 453.25,365.7969 C453.8281,365.7969 454.4375,365.9531 454.9063,366.2031 C455.3906,366.4844 455.5625,366.7031 455.6563,367.1094 C455.7188,367.5156 455.75,367.6406 455.8906,367.7656 C456.0313,367.9063 456.2656,368.0156 456.4844,368.0156 C456.75,368.0156 457.0156,367.875 457.1875,367.6563 C457.2969,367.5 457.3281,367.3125 457.3281,366.8906 L457.3281,365.4688 C457.3281,365.0313 457.3125,364.9063 457.2188,364.75 C457.0625,364.4844 456.7813,364.3438 456.4844,364.3438 C456.1875,364.3438 455.9844,364.4375 455.7656,364.75 L455.5938,364.6719 Z " fill="#000000"/><text fill="#000000" font-family="sans-serif" font-size="14" lengthAdjust="spacing" textLength="70" x="473.75" y="373.8467">Processor</text><line style="stroke:#181818;stroke-width:0.5;" x1="388.5" x2="596.5" y1="385" y2="385"/><text fill="#000000" font-family="sans-serif" font-size="14" lengthAdjust="spacing" textLength="193" x="393.5" y="401.9951">next_processors:Processor</text><line style="stroke:#181818;stroke-width:0.5;" x1="388.5" x2="596.5" y1="409.2969" y2="409.2969"/><text fill="#000000" font-family="sans-serif" font-size="14" lengthAdjust="spacing" textLength="198" x="393.5" y="426.292">Processor(next_processors)</text><text fill="#000000" font-family="sans-serif" font-size="14" font-style="italic" lengthAdjust="spacing" textLength="135" x="393.5" y="442.5889">process_impl(data)</text><text fill="#000000" font-family="sans-serif" font-size="14" lengthAdjust="spacing" textLength="98" x="393.5" y="458.8857">process(data)</text></g><path d="M633,361.5 L633,400.332 L586.5,397.1484 L633,408.332 L633,447.1641 A0,0 0 0 0 633,447.1641 L852,447.1641 A0,0 0 0 0 852,447.1641 L852,371.5 L842,361.5 L633,361.5 A0,0 0 0 0 633,361.5 " fill="#FEFFDD" style="stroke:#181818;stroke-width:0.5;"/><path d="M842,361.5 L842,371.5 L852,371.5 L842,361.5 " fill="#FEFFDD" style="stroke:#181818;stroke-width:0.5;"/><text fill="#000000" font-family="sans-serif" font-size="13" lengthAdjust="spacing" textLength="9" x="639" y="378.5669">{</text><text fill="#000000" font-family="sans-serif" font-size="13" lengthAdjust="spacing" textLength="123" x="651" y="393.6997">process_impl(data)</text><text fill="#000000" font-family="sans-serif" font-size="13" lengthAdjust="spacing" textLength="186" x="651" y="408.8325">foreach p in next_processors</text><text fill="#000000" font-family="sans-serif" font-size="13" lengthAdjust="spacing" textLength="101" x="667" y="423.9653">p.process(data)</text><text fill="#000000" font-family="sans-serif" font-size="13" lengthAdjust="spacing" textLength="9" x="639" y="439.0981">}</text><!--class CollectionProcessor--><g id="elem_CollectionProcessor"><rect codeLine="16" fill="#F1F1F1" height="64.2969" id="CollectionProcessor" rx="2.5" ry="2.5" style="stroke:#181818;stroke-width:0.5;" width="175" x="177" y="377.5"/><ellipse cx="192" cy="393.5" fill="#ADD1B2" rx="11" ry="11" style="stroke:#181818;stroke-width:1.0;"/><path d="M194.3438,389.1719 C193.4063,388.7344 192.8125,388.5938 191.9375,388.5938 C189.3125,388.5938 187.3125,390.6719 187.3125,393.3906 L187.3125,394.5156 C187.3125,397.0938 189.4219,398.9844 192.3125,398.9844 C193.5313,398.9844 194.6875,398.6875 195.4375,398.1406 C196.0156,397.7344 196.3438,397.2813 196.3438,396.8906 C196.3438,396.4375 195.9531,396.0469 195.4844,396.0469 C195.2656,396.0469 195.0625,396.125 194.875,396.3125 C194.4219,396.7969 194.4219,396.7969 194.2344,396.8906 C193.8125,397.1563 193.125,397.2813 192.3594,397.2813 C190.3125,397.2813 189.0156,396.1875 189.0156,394.4844 L189.0156,393.3906 C189.0156,391.6094 190.2656,390.2969 192,390.2969 C192.5781,390.2969 193.1875,390.4531 193.6563,390.7031 C194.1406,390.9844 194.3125,391.2031 194.4063,391.6094 C194.4688,392.0156 194.5,392.1406 194.6406,392.2656 C194.7813,392.4063 195.0156,392.5156 195.2344,392.5156 C195.5,392.5156 195.7656,392.375 195.9375,392.1563 C196.0469,392 196.0781,391.8125 196.0781,391.3906 L196.0781,389.9688 C196.0781,389.5313 196.0625,389.4063 195.9688,389.25 C195.8125,388.9844 195.5313,388.8438 195.2344,388.8438 C194.9375,388.8438 194.7344,388.9375 194.5156,389.25 L194.3438,389.1719 Z " fill="#000000"/><text fill="#000000" font-family="sans-serif" font-size="14" lengthAdjust="spacing" textLength="143" x="206" y="398.3467">CollectionProcessor</text><line style="stroke:#181818;stroke-width:0.5;" x1="178" x2="351" y1="409.5" y2="409.5"/><line style="stroke:#181818;stroke-width:0.5;" x1="178" x2="351" y1="417.5" y2="417.5"/><text fill="#000000" font-family="sans-serif" font-size="14" lengthAdjust="spacing" textLength="98" x="183" y="434.4951">process(data)</text></g><!--class WriterHtml--><g id="elem_WriterHtml"><rect fill="#F1F1F1" height="48" id="WriterHtml" rx="2.5" ry="2.5" style="stroke:#181818;stroke-width:0.5;" width="113" x="29" y="385.5"/><ellipse cx="44" cy="401.5" fill="#ADD1B2" rx="11" ry="11" style="stroke:#181818;stroke-width:1.0;"/><path d="M46.3438,397.1719 C45.4063,396.7344 44.8125,396.5938 43.9375,396.5938 C41.3125,396.5938 39.3125,398.6719 39.3125,401.3906 L39.3125,402.5156 C39.3125,405.0938 41.4219,406.9844 44.3125,406.9844 C45.5313,406.9844 46.6875,406.6875 47.4375,406.1406 C48.0156,405.7344 48.3438,405.2813 48.3438,404.8906 C48.3438,404.4375 47.9531,404.0469 47.4844,404.0469 C47.2656,404.0469 47.0625,404.125 46.875,404.3125 C46.4219,404.7969 46.4219,404.7969 46.2344,404.8906 C45.8125,405.1563 45.125,405.2813 44.3594,405.2813 C42.3125,405.2813 41.0156,404.1875 41.0156,402.4844 L41.0156,401.3906 C41.0156,399.6094 42.2656,398.2969 44,398.2969 C44.5781,398.2969 45.1875,398.4531 45.6563,398.7031 C46.1406,398.9844 46.3125,399.2031 46.4063,399.6094 C46.4688,400.0156 46.5,400.1406 46.6406,400.2656 C46.7813,400.4063 47.0156,400.5156 47.2344,400.5156 C47.5,400.5156 47.7656,400.375 47.9375,400.1563 C48.0469,400 48.0781,399.8125 48.0781,399.3906 L48.0781,397.9688 C48.0781,397.5313 48.0625,397.4063 47.9688,397.25 C47.8125,396.9844 47.5313,396.8438 47.2344,396.8438 C46.9375,396.8438 46.7344,396.9375 46.5156,397.25 L46.3438,397.1719 Z " fill="#000000"/><text fill="#000000" font-family="sans-serif" font-size="14" lengthAdjust="spacing" textLength="81" x="58" y="406.3467">WriterHtml</text><line style="stroke:#181818;stroke-width:0.5;" x1="30" x2="141" y1="417.5" y2="417.5"/><line style="stroke:#181818;stroke-width:0.5;" x1="30" x2="141" y1="425.5" y2="425.5"/></g><!--class WriterPdf--><g id="elem_WriterPdf"><rect fill="#F1F1F1" height="48" id="WriterPdf" rx="2.5" ry="2.5" style="stroke:#181818;stroke-width:0.5;" width="102" x="215.5" y="245"/><ellipse cx="230.5" cy="261" fill="#ADD1B2" rx="11" ry="11" style="stroke:#181818;stroke-width:1.0;"/><path d="M232.8438,256.6719 C231.9063,256.2344 231.3125,256.0938 230.4375,256.0938 C227.8125,256.0938 225.8125,258.1719 225.8125,260.8906 L225.8125,262.0156 C225.8125,264.5938 227.9219,266.4844 230.8125,266.4844 C232.0313,266.4844 233.1875,266.1875 233.9375,265.6406 C234.5156,265.2344 234.8438,264.7813 234.8438,264.3906 C234.8438,263.9375 234.4531,263.5469 233.9844,263.5469 C233.7656,263.5469 233.5625,263.625 233.375,263.8125 C232.9219,264.2969 232.9219,264.2969 232.7344,264.3906 C232.3125,264.6563 231.625,264.7813 230.8594,264.7813 C228.8125,264.7813 227.5156,263.6875 227.5156,261.9844 L227.5156,260.8906 C227.5156,259.1094 228.7656,257.7969 230.5,257.7969 C231.0781,257.7969 231.6875,257.9531 232.1563,258.2031 C232.6406,258.4844 232.8125,258.7031 232.9063,259.1094 C232.9688,259.5156 233,259.6406 233.1406,259.7656 C233.2813,259.9063 233.5156,260.0156 233.7344,260.0156 C234,260.0156 234.2656,259.875 234.4375,259.6563 C234.5469,259.5 234.5781,259.3125 234.5781,258.8906 L234.5781,257.4688 C234.5781,257.0313 234.5625,256.9063 234.4688,256.75 C234.3125,256.4844 234.0313,256.3438 233.7344,256.3438 C233.4375,256.3438 233.2344,256.4375 233.0156,256.75 L232.8438,256.6719 Z " fill="#000000"/><text fill="#000000" font-family="sans-serif" font-size="14" lengthAdjust="spacing" textLength="70" x="244.5" y="265.8467">WriterPdf</text><line style="stroke:#181818;stroke-width:0.5;" x1="216.5" x2="316.5" y1="277" y2="277"/><line style="stroke:#181818;stroke-width:0.5;" x1="216.5" x2="316.5" y1="285" y2="285"/></g><!--class WhatsAppPublisher--><g id="elem_WhatsAppPublisher"><rect fill="#F1F1F1" height="48" id="WhatsAppPublisher" rx="2.5" ry="2.5" style="stroke:#181818;stroke-width:0.5;" width="173" x="7" y="245"/><ellipse cx="22" cy="261" fill="#ADD1B2" rx="11" ry="11" style="stroke:#181818;stroke-width:1.0;"/><path d="M24.3438,256.6719 C23.4063,256.2344 22.8125,256.0938 21.9375,256.0938 C19.3125,256.0938 17.3125,258.1719 17.3125,260.8906 L17.3125,262.0156 C17.3125,264.5938 19.4219,266.4844 22.3125,266.4844 C23.5313,266.4844 24.6875,266.1875 25.4375,265.6406 C26.0156,265.2344 26.3438,264.7813 26.3438,264.3906 C26.3438,263.9375 25.9531,263.5469 25.4844,263.5469 C25.2656,263.5469 25.0625,263.625 24.875,263.8125 C24.4219,264.2969 24.4219,264.2969 24.2344,264.3906 C23.8125,264.6563 23.125,264.7813 22.3594,264.7813 C20.3125,264.7813 19.0156,263.6875 19.0156,261.9844 L19.0156,260.8906 C19.0156,259.1094 20.2656,257.7969 22,257.7969 C22.5781,257.7969 23.1875,257.9531 23.6563,258.2031 C24.1406,258.4844 24.3125,258.7031 24.4063,259.1094 C24.4688,259.5156 24.5,259.6406 24.6406,259.7656 C24.7813,259.9063 25.0156,260.0156 25.2344,260.0156 C25.5,260.0156 25.7656,259.875 25.9375,259.6563 C26.0469,259.5 26.0781,259.3125 26.0781,258.8906 L26.0781,257.4688 C26.0781,257.0313 26.0625,256.9063 25.9688,256.75 C25.8125,256.4844 25.5313,256.3438 25.2344,256.3438 C24.9375,256.3438 24.7344,256.4375 24.5156,256.75 L24.3438,256.6719 Z " fill="#000000"/><text fill="#000000" font-family="sans-serif" font-size="14" lengthAdjust="spacing" textLength="141" x="36" y="265.8467">WhatsAppPublisher</text><line style="stroke:#181818;stroke-width:0.5;" x1="8" x2="179" y1="277" y2="277"/><line style="stroke:#181818;stroke-width:0.5;" x1="8" x2="179" y1="285" y2="285"/></g><!--class ProcessLogic--><g id="elem_ProcessLogic"><rect fill="#F1F1F1" height="48" id="ProcessLogic" rx="2.5" ry="2.5" style="stroke:#181818;stroke-width:0.5;" width="125" x="468" y="245"/><ellipse cx="483" cy="261" fill="#ADD1B2" rx="11" ry="11" style="stroke:#181818;stroke-width:1.0;"/><path d="M485.3438,256.6719 C484.4063,256.2344 483.8125,256.0938 482.9375,256.0938 C480.3125,256.0938 478.3125,258.1719 478.3125,260.8906 L478.3125,262.0156 C478.3125,264.5938 480.4219,266.4844 483.3125,266.4844 C484.5313,266.4844 485.6875,266.1875 486.4375,265.6406 C487.0156,265.2344 487.3438,264.7813 487.3438,264.3906 C487.3438,263.9375 486.9531,263.5469 486.4844,263.5469 C486.2656,263.5469 486.0625,263.625 485.875,263.8125 C485.4219,264.2969 485.4219,264.2969 485.2344,264.3906 C484.8125,264.6563 484.125,264.7813 483.3594,264.7813 C481.3125,264.7813 480.0156,263.6875 480.0156,261.9844 L480.0156,260.8906 C480.0156,259.1094 481.2656,257.7969 483,257.7969 C483.5781,257.7969 484.1875,257.9531 484.6563,258.2031 C485.1406,258.4844 485.3125,258.7031 485.4063,259.1094 C485.4688,259.5156 485.5,259.6406 485.6406,259.7656 C485.7813,259.9063 486.0156,260.0156 486.2344,260.0156 C486.5,260.0156 486.7656,259.875 486.9375,259.6563 C487.0469,259.5 487.0781,259.3125 487.0781,258.8906 L487.0781,257.4688 C487.0781,257.0313 487.0625,256.9063 486.9688,256.75 C486.8125,256.4844 486.5313,256.3438 486.2344,256.3438 C485.9375,256.3438 485.7344,256.4375 485.5156,256.75 L485.3438,256.6719 Z " fill="#000000"/><text fill="#000000" font-family="sans-serif" font-size="14" lengthAdjust="spacing" textLength="93" x="497" y="265.8467">ProcessLogic</text><line style="stroke:#181818;stroke-width:0.5;" x1="469" x2="592" y1="277" y2="277"/><line style="stroke:#181818;stroke-width:0.5;" x1="469" x2="592" y1="285" y2="285"/></g><!--class Tenbis--><g id="elem_Tenbis"><rect codeLine="31" fill="#F1F1F1" height="178.375" id="Tenbis" rx="2.5" ry="2.5" style="stroke:#181818;stroke-width:0.5;" width="244" x="447.5" y="7"/><ellipse cx="541.25" cy="23" fill="#ADD1B2" rx="11" ry="11" style="stroke:#181818;stroke-width:1.0;"/><path d="M543.5938,18.6719 C542.6563,18.2344 542.0625,18.0938 541.1875,18.0938 C538.5625,18.0938 536.5625,20.1719 536.5625,22.8906 L536.5625,24.0156 C536.5625,26.5938 538.6719,28.4844 541.5625,28.4844 C542.7813,28.4844 543.9375,28.1875 544.6875,27.6406 C545.2656,27.2344 545.5938,26.7813 545.5938,26.3906 C545.5938,25.9375 545.2031,25.5469 544.7344,25.5469 C544.5156,25.5469 544.3125,25.625 544.125,25.8125 C543.6719,26.2969 543.6719,26.2969 543.4844,26.3906 C543.0625,26.6563 542.375,26.7813 541.6094,26.7813 C539.5625,26.7813 538.2656,25.6875 538.2656,23.9844 L538.2656,22.8906 C538.2656,21.1094 539.5156,19.7969 541.25,19.7969 C541.8281,19.7969 542.4375,19.9531 542.9063,20.2031 C543.3906,20.4844 543.5625,20.7031 543.6563,21.1094 C543.7188,21.5156 543.75,21.6406 543.8906,21.7656 C544.0313,21.9063 544.2656,22.0156 544.4844,22.0156 C544.75,22.0156 545.0156,21.875 545.1875,21.6563 C545.2969,21.5 545.3281,21.3125 545.3281,20.8906 L545.3281,19.4688 C545.3281,19.0313 545.3125,18.9063 545.2188,18.75 C545.0625,18.4844 544.7813,18.3438 544.4844,18.3438 C544.1875,18.3438 543.9844,18.4375 543.7656,18.75 L543.5938,18.6719 Z " fill="#000000"/><text fill="#000000" font-family="sans-serif" font-size="14" lengthAdjust="spacing" textLength="48" x="561.75" y="27.8467">Tenbis</text><line style="stroke:#181818;stroke-width:0.5;" x1="448.5" x2="690.5" y1="39" y2="39"/><text fill="#000000" font-family="sans-serif" font-size="14" lengthAdjust="spacing" textLength="93" x="453.5" y="55.9951">usermail : str</text><text fill="#000000" font-family="sans-serif" font-size="14" lengthAdjust="spacing" textLength="108" x="453.5" y="72.292">authtoken : str</text><text fill="#000000" font-family="sans-serif" font-size="14" lengthAdjust="spacing" textLength="85" x="453.5" y="88.5889">session : str</text><line style="stroke:#181818;stroke-width:0.5;" x1="448.5" x2="690.5" y1="95.8906" y2="95.8906"/><text fill="#000000" font-family="sans-serif" font-size="14" lengthAdjust="spacing" textLength="87" x="453.5" y="112.8857">auth() : bool</text><text fill="#000000" font-family="sans-serif" font-size="14" lengthAdjust="spacing" textLength="232" x="453.5" y="129.1826">post_next_api(url,payload) : json</text><text fill="#000000" font-family="sans-serif" font-size="14" lengthAdjust="spacing" textLength="195" x="453.5" y="145.4795">is_budget_available() : bool</text><text fill="#000000" font-family="sans-serif" font-size="14" lengthAdjust="spacing" textLength="151" x="453.5" y="161.7764">buy_coupon(amount)</text><text fill="#000000" font-family="sans-serif" font-size="14" lengthAdjust="spacing" textLength="159" x="453.5" y="178.0732">get_unused_coupons()</text></g><!--class WhatsappGreenApi--><g id="elem_WhatsappGreenApi"><rect codeLine="42" fill="#F1F1F1" height="178.375" id="WhatsappGreenApi" rx="2.5" ry="2.5" style="stroke:#181818;stroke-width:0.5;" width="173" x="7" y="7"/><ellipse cx="22" cy="23" fill="#ADD1B2" rx="11" ry="11" style="stroke:#181818;stroke-width:1.0;"/><path d="M24.3438,18.6719 C23.4063,18.2344 22.8125,18.0938 21.9375,18.0938 C19.3125,18.0938 17.3125,20.1719 17.3125,22.8906 L17.3125,24.0156 C17.3125,26.5938 19.4219,28.4844 22.3125,28.4844 C23.5313,28.4844 24.6875,28.1875 25.4375,27.6406 C26.0156,27.2344 26.3438,26.7813 26.3438,26.3906 C26.3438,25.9375 25.9531,25.5469 25.4844,25.5469 C25.2656,25.5469 25.0625,25.625 24.875,25.8125 C24.4219,26.2969 24.4219,26.2969 24.2344,26.3906 C23.8125,26.6563 23.125,26.7813 22.3594,26.7813 C20.3125,26.7813 19.0156,25.6875 19.0156,23.9844 L19.0156,22.8906 C19.0156,21.1094 20.2656,19.7969 22,19.7969 C22.5781,19.7969 23.1875,19.9531 23.6563,20.2031 C24.1406,20.4844 24.3125,20.7031 24.4063,21.1094 C24.4688,21.5156 24.5,21.6406 24.6406,21.7656 C24.7813,21.9063 25.0156,22.0156 25.2344,22.0156 C25.5,22.0156 25.7656,21.875 25.9375,21.6563 C26.0469,21.5 26.0781,21.3125 26.0781,20.8906 L26.0781,19.4688 C26.0781,19.0313 26.0625,18.9063 25.9688,18.75 C25.8125,18.4844 25.5313,18.3438 25.2344,18.3438 C24.9375,18.3438 24.7344,18.4375 24.5156,18.75 L24.3438,18.6719 Z " fill="#000000"/><text fill="#000000" font-family="sans-serif" font-size="14" lengthAdjust="spacing" textLength="141" x="36" y="27.8467">WhatsappGreenApi</text><line style="stroke:#181818;stroke-width:0.5;" x1="8" x2="179" y1="39" y2="39"/><text fill="#000000" font-family="sans-serif" font-size="14" lengthAdjust="spacing" textLength="94" x="13" y="55.9951">instance : int</text><text fill="#000000" font-family="sans-serif" font-size="14" lengthAdjust="spacing" textLength="76" x="13" y="72.292">token : str</text><text fill="#000000" font-family="sans-serif" font-size="14" lengthAdjust="spacing" textLength="85" x="13" y="88.5889">chat_id : str</text><line style="stroke:#181818;stroke-width:0.5;" x1="8" x2="179" y1="95.8906" y2="95.8906"/><text fill="#000000" font-family="sans-serif" font-size="14" lengthAdjust="spacing" textLength="42" x="13" y="112.8857">auth()</text><text fill="#000000" font-family="sans-serif" font-size="14" lengthAdjust="spacing" textLength="106" x="13" y="129.1826">create_group()</text><text fill="#000000" font-family="sans-serif" font-size="14" lengthAdjust="spacing" textLength="131" x="13" y="145.4795">get_chat_history()</text><text fill="#000000" font-family="sans-serif" font-size="14" lengthAdjust="spacing" textLength="154" x="13" y="161.7764">send_file_by_upload()</text><text fill="#000000" font-family="sans-serif" font-size="14" lengthAdjust="spacing" textLength="114" x="13" y="178.0732">send_message()</text></g><!--class ChatCommandsReader--><g id="elem_ChatCommandsReader"><rect fill="#F1F1F1" height="48" id="ChatCommandsReader" rx="2.5" ry="2.5" style="stroke:#181818;stroke-width:0.5;" width="197" x="215" y="72"/><ellipse cx="230" cy="88" fill="#ADD1B2" rx="11" ry="11" style="stroke:#181818;stroke-width:1.0;"/><path d="M232.3438,83.6719 C231.4063,83.2344 230.8125,83.0938 229.9375,83.0938 C227.3125,83.0938 225.3125,85.1719 225.3125,87.8906 L225.3125,89.0156 C225.3125,91.5938 227.4219,93.4844 230.3125,93.4844 C231.5313,93.4844 232.6875,93.1875 233.4375,92.6406 C234.0156,92.2344 234.3438,91.7813 234.3438,91.3906 C234.3438,90.9375 233.9531,90.5469 233.4844,90.5469 C233.2656,90.5469 233.0625,90.625 232.875,90.8125 C232.4219,91.2969 232.4219,91.2969 232.2344,91.3906 C231.8125,91.6563 231.125,91.7813 230.3594,91.7813 C228.3125,91.7813 227.0156,90.6875 227.0156,88.9844 L227.0156,87.8906 C227.0156,86.1094 228.2656,84.7969 230,84.7969 C230.5781,84.7969 231.1875,84.9531 231.6563,85.2031 C232.1406,85.4844 232.3125,85.7031 232.4063,86.1094 C232.4688,86.5156 232.5,86.6406 232.6406,86.7656 C232.7813,86.9063 233.0156,87.0156 233.2344,87.0156 C233.5,87.0156 233.7656,86.875 233.9375,86.6563 C234.0469,86.5 234.0781,86.3125 234.0781,85.8906 L234.0781,84.4688 C234.0781,84.0313 234.0625,83.9063 233.9688,83.75 C233.8125,83.4844 233.5313,83.3438 233.2344,83.3438 C232.9375,83.3438 232.7344,83.4375 232.5156,83.75 L232.3438,83.6719 Z " fill="#000000"/><text fill="#000000" font-family="sans-serif" font-size="14" lengthAdjust="spacing" textLength="165" x="244" y="92.8467">ChatCommandsReader</text><line style="stroke:#181818;stroke-width:0.5;" x1="216" x2="411" y1="104" y2="104"/><line style="stroke:#181818;stroke-width:0.5;" x1="216" x2="411" y1="112" y2="112"/></g><!--link CollectionProcessor to Processor--><g id="link_CollectionProcessor_Processor"><path codeLine="20" d="M352.227,409.5 C363.916,409.5 357.605,409.5 369.295,409.5 " fill="none" id="CollectionProcessor-to-Processor" style="stroke:#181818;stroke-width:1.0;"/><polygon fill="none" points="387.295,409.5,369.295,403.5,369.295,415.5,387.295,409.5" style="stroke:#181818;stroke-width:1.0;"/></g><!--link WriterHtml to CollectionProcessor--><g id="link_WriterHtml_CollectionProcessor"><path codeLine="22" d="M142.137,409.5 C153.608,409.5 147.08,409.5 158.551,409.5 " fill="none" id="WriterHtml-to-CollectionProcessor" style="stroke:#181818;stroke-width:1.0;"/><polygon fill="none" points="176.551,409.5,158.551,403.5,158.551,415.5,176.551,409.5" style="stroke:#181818;stroke-width:1.0;"/></g><!--link WriterPdf to CollectionProcessor--><g id="link_WriterPdf_CollectionProcessor"><path codeLine="23" d="M266.165,293.182 C265.832,316.284 265.5771,333.9069 265.2081,359.4441 " fill="none" id="WriterPdf-to-CollectionProcessor" style="stroke:#181818;stroke-width:1.0;"/><polygon fill="none" points="264.948,377.4422,271.2074,359.5308,259.2087,359.3574,264.948,377.4422" style="stroke:#181818;stroke-width:1.0;"/></g><!--link WhatsAppPublisher to CollectionProcessor--><g id="link_WhatsAppPublisher_CollectionProcessor"><path codeLine="24" d="M122.122,293.182 C150.645,316.284 180.6364,340.576 212.1664,366.1132 " fill="none" id="WhatsAppPublisher-to-CollectionProcessor" style="stroke:#181818;stroke-width:1.0;"/><polygon fill="none" points="226.154,377.4422,215.9427,361.4506,208.3901,370.7757,226.154,377.4422" style="stroke:#181818;stroke-width:1.0;"/></g><!--link ProcessLogic to Processor--><g id="link_ProcessLogic_Processor"><path codeLine="25" d="M524.14,293.182 C519.66,309.507 518.2283,314.7254 512.5073,335.5784 " fill="none" id="ProcessLogic-to-Processor" style="stroke:#181818;stroke-width:1.0;"/><polygon fill="none" points="507.745,352.937,518.2935,337.1659,506.7211,333.991,507.745,352.937" style="stroke:#181818;stroke-width:1.0;"/></g><!--link Tenbis to ProcessLogic--><g id="link_Tenbis_ProcessLogic"><path codeLine="26" d="M549.429,185.005 C544.39,207.1 539.401,228.972 535.811,244.711 " fill="none" id="Tenbis-ProcessLogic" style="stroke:#181818;stroke-width:1.0;"/></g><!--link WhatsappGreenApi to WhatsAppPublisher--><g id="link_WhatsappGreenApi_WhatsAppPublisher"><path codeLine="27" d="M93.5,185.005 C93.5,207.1 93.5,228.972 93.5,244.711 " fill="none" id="WhatsappGreenApi-WhatsAppPublisher" style="stroke:#181818;stroke-width:1.0;"/></g><!--link ChatCommandsReader to Processor--><g id="link_ChatCommandsReader_Processor"><path codeLine="28" d="M326.808,120.159 C354.882,169.014 411.8768,268.1972 451.5868,337.3022 " fill="none" id="ChatCommandsReader-to-Processor" style="stroke:#181818;stroke-width:1.0;"/><polygon fill="none" points="460.555,352.909,456.7891,334.3128,446.3846,340.2916,460.555,352.909" style="stroke:#181818;stroke-width:1.0;"/></g><!--link WhatsappGreenApi to ChatCommandsReader--><g id="link_WhatsappGreenApi_ChatCommandsReader"><path codeLine="29" d="M180.297,96 C191.831,96 203.365,96 214.898,96 " fill="none" id="WhatsappGreenApi-ChatCommandsReader" style="stroke:#181818;stroke-width:1.0;"/></g><!--SRC=[TPB1Rjim38RlV0eT7M3T0-GmeCXXE_GG30Ds56YPiTN9eY1AHGEtxrxPKHelINsIVdx- -LEISIYYzf4DYN1K4tXwJJgS1Tb-rk1prLmn6vYmbHJHf7TLPMt7u9eE4swWIdNt3k0vaOgs7vBYmwNxTbj9c42fUqv5FN0aD8CAodfr5MIkpr_uVjsIVAVchW1ccNZ7pf59blrwzfkWzx27jn-No01_eqqKVwNHBPKxVrHatntKmvV8W4aUGzZdrbaPA7wDrjKJzzQSg4lj3_dMIb7LcZgvOmW_8v5_37O6RZh2hYWx7aVqdVmcxEXwrdk0gquhz_CPrp0JPA4uedLggyeh0SnfIFoFVDrBSIyJhghDfcnQPWU19UdbbZ7O9aVtBU3HCNOpyIpimOfkSzTJ8LvA3smTNNvlyr4Rpe5zWoDddpOmazcNI5sjIBDSzIdppKbDOBqaz8QAf_K9ribDeRNj_aiEfhpFHBgFnRqvzLkumKhYU2oIbDUe3zQHReywXtcSipgMiy2UvaWV]--></g></svg>