<svg xmlns="http://www.w3.org/2000/svg" xmlns:xlink="http://www.w3.org/1999/xlink" contentStyleType="text/css" data-diagram-type="ACTIVITY" height="561px" preserveAspectRatio="none" style="width:249px;height:561px;background:#FFFFFF;" version="1.1" viewBox="0 0 249 561" width="249px" zoomAndPan="magnify"><defs/><g><ellipse cx="121.7549" cy="20" fill="#222222" rx="10" ry="10" style="stroke:#222222;stroke-width:1;"/><rect fill="#F1F1F1" height="33.9688" rx="12.5" ry="12.5" style="stroke:#181818;stroke-width:0.5;" width="221.5098" x="11" y="50"/><text fill="#000000" font-family="sans-serif" font-size="12" lengthAdjust="spacing" textLength="197.6953" x="24.8145" y="71.1387">Read commands from WhatsApp</text><rect fill="#F1F1F1" height="47.9375" rx="12.5" ry="12.5" style="stroke:#181818;stroke-width:0.5;" width="135.0898" x="54.21" y="196.3711"/><text fill="#000000" font-family="sans-serif" font-size="12" lengthAdjust="spacing" textLength="115.0898" x="64.21" y="217.5098">Purchase Shufersal</text><text fill="#000000" font-family="sans-serif" font-size="12" lengthAdjust="spacing" textLength="45.8906" x="68.0244" y="231.4785">Coupon</text><polygon fill="#F1F1F1" points="53.6494,147.9688,189.8604,147.9688,201.8604,159.9688,189.8604,171.9688,53.6494,171.9688,41.6494,159.9688,53.6494,147.9688" style="stroke:#181818;stroke-width:0.5;"/><text fill="#000000" font-family="sans-serif" font-size="11" lengthAdjust="spacing" textLength="19.0083" x="125.7549" y="182.1792">yes</text><text fill="#000000" font-family="sans-serif" font-size="11" lengthAdjust="spacing" textLength="136.2109" x="53.6494" y="163.7769">Workingday &amp; credit &gt; 0</text><text fill="#000000" font-family="sans-serif" font-size="11" lengthAdjust="spacing" textLength="13.7017" x="201.8604" y="157.3745">no</text><polygon fill="#F1F1F1" points="121.7549,264.3086,133.7549,276.3086,121.7549,288.3086,109.7549,276.3086,121.7549,264.3086" style="stroke:#181818;stroke-width:0.5;"/><polygon fill="#F1F1F1" points="53.2412,103.9688,190.2686,103.9688,202.2686,115.9688,190.2686,127.9688,53.2412,127.9688,41.2412,115.9688,53.2412,103.9688" style="stroke:#181818;stroke-width:0.5;"/><text fill="#000000" font-family="sans-serif" font-size="11" lengthAdjust="spacing" textLength="137.0273" x="53.2412" y="119.7769">/disable command exists</text><text fill="#000000" font-family="sans-serif" font-size="11" lengthAdjust="spacing" textLength="19.0083" x="202.2686" y="113.3745">yes</text><polygon fill="#F1F1F1" points="121.7549,308.3086,133.7549,320.3086,121.7549,332.3086,109.7549,320.3086,121.7549,308.3086" style="stroke:#181818;stroke-width:0.5;"/><rect fill="#F1F1F1" height="47.9375" rx="12.5" ry="12.5" style="stroke:#181818;stroke-width:0.5;" width="204.0371" x="19.7363" y="352.3086"/><text fill="#000000" font-family="sans-serif" font-size="12" lengthAdjust="spacing" textLength="180.2227" x="33.5508" y="373.4473">Generate report with coupons</text><text fill="#000000" font-family="sans-serif" font-size="12" lengthAdjust="spacing" textLength="55.0957" x="33.5508" y="387.416">barcodes</text><rect fill="#F1F1F1" height="33.9688" rx="12.5" ry="12.5" style="stroke:#181818;stroke-width:0.5;" width="206.0234" x="18.7432" y="420.2461"/><text fill="#000000" font-family="sans-serif" font-size="12" lengthAdjust="spacing" textLength="178.3945" x="32.5576" y="441.3848">Save report as PDF and HTML</text><rect fill="#F1F1F1" height="33.9688" rx="12.5" ry="12.5" style="stroke:#181818;stroke-width:0.5;" width="213.8223" x="14.8438" y="474.2148"/><text fill="#000000" font-family="sans-serif" font-size="12" lengthAdjust="spacing" textLength="190.0078" x="28.6582" y="495.3535">Publish PDF to WhatsApp group</text><ellipse cx="121.7549" cy="539.1836" fill="none" rx="11" ry="11" style="stroke:#222222;stroke-width:1;"/><ellipse cx="121.7549" cy="539.1836" fill="#222222" rx="6" ry="6" style="stroke:#222222;stroke-width:1;"/><line style="stroke:#181818;stroke-width:1;" x1="121.7549" x2="121.7549" y1="30" y2="50"/><polygon fill="#181818" points="117.7549,40,121.7549,50,125.7549,40,121.7549,44" style="stroke:#181818;stroke-width:1;"/><line style="stroke:#181818;stroke-width:1;" x1="121.7549" x2="121.7549" y1="171.9688" y2="196.3711"/><polygon fill="#181818" points="117.7549,186.3711,121.7549,196.3711,125.7549,186.3711,121.7549,190.3711" style="stroke:#181818;stroke-width:1;"/><line style="stroke:#181818;stroke-width:1;" x1="201.8604" x2="213.8604" y1="159.9688" y2="159.9688"/><polygon fill="#181818" points="209.8604,210.3398,213.8604,220.3398,217.8604,210.3398,213.8604,214.3398" style="stroke:#181818;stroke-width:1;"/><line style="stroke:#181818;stroke-width:1;" x1="213.8604" x2="213.8604" y1="159.9688" y2="276.3086"/><line style="stroke:#181818;stroke-width:1;" x1="213.8604" x2="133.7549" y1="276.3086" y2="276.3086"/><polygon fill="#181818" points="143.7549,272.3086,133.7549,276.3086,143.7549,280.3086,139.7549,276.3086" style="stroke:#181818;stroke-width:1;"/><line style="stroke:#181818;stroke-width:1;" x1="121.7549" x2="121.7549" y1="244.3086" y2="264.3086"/><polygon fill="#181818" points="117.7549,254.3086,121.7549,264.3086,125.7549,254.3086,121.7549,258.3086" style="stroke:#181818;stroke-width:1;"/><line style="stroke:#181818;stroke-width:1;" x1="121.7549" x2="121.7549" y1="127.9688" y2="147.9688"/><polygon fill="#181818" points="117.7549,137.9688,121.7549,147.9688,125.7549,137.9688,121.7549,141.9688" style="stroke:#181818;stroke-width:1;"/><line style="stroke:#181818;stroke-width:1;" x1="202.2686" x2="223.8604" y1="115.9688" y2="115.9688"/><polygon fill="#181818" points="219.8604,210.3398,223.8604,220.3398,227.8604,210.3398,223.8604,214.3398" style="stroke:#181818;stroke-width:1;"/><line style="stroke:#181818;stroke-width:1;" x1="223.8604" x2="223.8604" y1="115.9688" y2="320.3086"/><line style="stroke:#181818;stroke-width:1;" x1="223.8604" x2="133.7549" y1="320.3086" y2="320.3086"/><polygon fill="#181818" points="143.7549,316.3086,133.7549,320.3086,143.7549,324.3086,139.7549,320.3086" style="stroke:#181818;stroke-width:1;"/><line style="stroke:#181818;stroke-width:1;" x1="121.7549" x2="121.7549" y1="288.3086" y2="308.3086"/><polygon fill="#181818" points="117.7549,298.3086,121.7549,308.3086,125.7549,298.3086,121.7549,302.3086" style="stroke:#181818;stroke-width:1;"/><line style="stroke:#181818;stroke-width:1;" x1="121.7549" x2="121.7549" y1="83.9688" y2="103.9688"/><polygon fill="#181818" points="117.7549,93.9688,121.7549,103.9688,125.7549,93.9688,121.7549,97.9688" style="stroke:#181818;stroke-width:1;"/><line style="stroke:#181818;stroke-width:1;" x1="121.7549" x2="121.7549" y1="332.3086" y2="352.3086"/><polygon fill="#181818" points="117.7549,342.3086,121.7549,352.3086,125.7549,342.3086,121.7549,346.3086" style="stroke:#181818;stroke-width:1;"/><line style="stroke:#181818;stroke-width:1;" x1="121.7549" x2="121.7549" y1="400.2461" y2="420.2461"/><polygon fill="#181818" points="117.7549,410.2461,121.7549,420.2461,125.7549,410.2461,121.7549,414.2461" style="stroke:#181818;stroke-width:1;"/><line style="stroke:#181818;stroke-width:1;" x1="121.7549" x2="121.7549" y1="454.2148" y2="474.2148"/><polygon fill="#181818" points="117.7549,464.2148,121.7549,474.2148,125.7549,464.2148,121.7549,468.2148" style="stroke:#181818;stroke-width:1;"/><line style="stroke:#181818;stroke-width:1;" x1="121.7549" x2="121.7549" y1="508.1836" y2="528.1836"/><polygon fill="#181818" points="117.7549,518.1836,121.7549,528.1836,125.7549,518.1836,121.7549,522.1836" style="stroke:#181818;stroke-width:1;"/><!--SRC=[LP0nJyD038Nt-nLlGka4SoDLGY1W02bgaRgmE3cdToAvYsm7wB_daefAlC6Bl_VqR3KISswBFPD7byUHabVqaaSS0vdUJrFjOe_graUbTk0_2FmJrNG32vnGdLatZWTbXwB5SCpo6TF9qnatw8HzDEnmzy-0LTjcbYwGCWvXxbcKXe-4XpnFETKhimIZIldYuEHZxowpL7_cn4B649wo6BwZXT9oSMl9QKcwx5dhWXxewugHedbymdBAo_lRAvPzCxT3rB0kB5y_W9EKkDgfvUaN]--></g></svg>